PathFileType	4	(X/Y/Z)	C:\Users\WrightLab\Desktop\Jo\P1.2Trial8.trc
DataRate	CameraRate	NumFrames	NumMarkers	Units	OrigDataRate	OrigDataStartFrame	OrigNumFrames
100.00	100.00	       23	19	mm	100.00	237	       946
Frame#	Time	Headset_Front			Headset_Back			Headset_Left			Headset_Right			Left_Shoulder			Right_Shoulder			Sternum			C7			Left Elbow			Right Elbow			Left Wrist			Right Wrist			Left ASIS			Right ASIS			S2			Left Knee			Right Knee			Left Ankle			Right Ankle			
		X1	Y1	Z1	X2	Y2	Z2	X3	Y3	Z3	X4	Y4	Z4	X5	Y5	Z5	X6	Y6	Z6	X7	Y7	Z7	X8	Y8	Z8	X9	Y9	Z9	X10	Y10	Z10	X11	Y11	Z11	X12	Y12	Z12	X13	Y13	Z13	X14	Y14	Z14	X15	Y15	Z15	X16	Y16	Z16	X17	Y17	Z17	X18	Y18	Z18	X19	Y19	Z19	

237	2.360																-256.16965	1026.74927	1610.04712																-278.44467	853.02319	1408.03552				-458.89984	879.05066	1582.87158							-438.65765	446.09686	1636.61877							
238	2.370																-258.15564	1025.90601	1610.65210																-280.84787	848.93469	1410.45642				-461.04373	877.61829	1585.26831							-439.13028	445.71930	1636.61035							
239	2.380																-259.71033	1024.72095	1611.16113																-283.02325	845.82025	1412.94910				-462.60901	875.80774	1584.68250							-440.55493	445.39841	1634.40735	-799.02423	172.05463	1863.10437				
240	2.390																-261.94525	1023.84485	1611.83411																-286.05850	842.10895	1415.13245				-464.20883	874.06116	1584.13452							-442.88867	445.30307	1632.68713	-806.39716	170.65150	1854.40344				
241	2.400																-264.29938	1023.16394	1612.07690																-289.73334	837.80096	1419.39343				-466.20331	874.03308	1582.51489							-443.53247	443.89426	1631.30017	-813.31055	168.84709	1843.43616				
242	2.410																-266.56982	1021.12927	1611.69629																-293.85532	833.13788	1422.32776				-467.97360	874.04437	1580.64355							-444.90805	443.74933	1628.55286	-820.94830	166.66692	1834.08191				
243	2.420																-268.81445	1019.82220	1612.30505																-298.47968	828.88959	1425.98486				-469.75598	873.45135	1577.22937							-445.97186	442.54269	1627.56421	-828.83331	164.63083	1823.41675				
244	2.430																-271.64935	1018.52338	1611.60535																-303.51816	823.31067	1428.76709				-471.80612	872.52625	1577.74194							-447.22455	441.44653	1628.34180	-836.47577	163.11978	1811.99255				
245	2.440																-274.94330	1016.64404	1612.42725																-308.78735	819.43573	1433.24683				-473.71237	871.99780	1575.08630							-450.03888	442.06940	1624.85999	-845.42505	161.23088	1802.07263				
246	2.450																-277.25702	1015.78784	1611.78882																-314.12967	814.25684	1436.32678				-475.73242	870.57153	1573.08167							-451.06683	441.00446	1623.60400	-853.97955	160.34509	1789.57434				
247	2.460																-281.72366	1013.61011	1610.82751																-320.00949	809.62872	1439.92114				-477.82294	869.23865	1573.98608							-453.28967	439.59833	1623.98413	-862.83905	159.02724	1778.26306				
248	2.470																-285.58282	1012.43494	1609.58215																-326.28482	804.53284	1442.75806				-480.36914	869.70190	1570.54907							-454.50739	439.04236	1620.95178	-871.50928	158.35625	1766.04382				
249	2.480																-289.18716	1011.18140	1608.52917																-333.08905	799.72241	1447.47205				-482.59573	869.37341	1565.86816							-455.53366	437.78021	1620.31238	-880.50757	158.39363	1753.66443				
250	2.490																-292.93085	1009.16675	1608.59009																-339.69812	795.86029	1450.36011				-484.73541	868.30817	1565.38892							-459.03131	438.17828	1618.09033	-890.00458	158.35168	1742.09497				
251	2.500																-297.43369	1008.06104	1606.68518																-345.93414	791.40271	1453.26233				-487.25879	867.80615	1563.03857							-459.92911	437.76498	1618.04944	-898.84528	158.83138	1731.27649				
252	2.510																-301.23508	1006.30109	1605.80872																-352.03491	787.83765	1457.28198				-489.91354	866.43512	1562.73962							-462.76041	436.63431	1617.14685	-907.69745	159.60651	1718.75574				
253	2.520																-305.50769	1005.18707	1604.15344																-357.51096	784.94318	1459.88025				-492.46744	866.01093	1560.11511							-464.74020	436.98022	1615.82983	-916.36255	160.99113	1706.85425				
254	2.530																-310.00552	1004.45923	1603.11975																-363.04507	782.20856	1461.92236				-495.20905	865.71826	1556.01245							-466.59940	436.57947	1613.39307	-924.79437	162.59714	1695.20251				
255	2.540																-314.70038	1002.94714	1601.84106																-368.14835	779.81250	1463.65417				-497.99313	865.03827	1554.32996							-469.34949	436.52319	1612.86328	-932.60712	164.65012	1684.29504				
256	2.550																-318.65018	1001.46515	1601.26111																-373.38455	777.47101	1463.96387				-500.91071	863.99689	1552.78601							-470.83218	435.49353	1612.46497	-940.22565	167.14363	1673.72803				
257	2.560																-323.10715	1000.71960	1599.25806																-377.97980	775.63245	1464.96497				-504.15048	863.82153	1550.23499							-473.70969	434.50806	1611.54346	-947.72314	170.17371	1663.92969				
258	2.570																-328.08649	999.31146	1597.66333																-383.00641	773.56384	1464.81250				-507.31168	862.50940	1548.87439							-475.32520	434.56281	1611.64368	-954.09833	173.50525	1654.95007				
259	2.580													-793.65546	1287.47925	1722.08374	-332.62500	998.61627	1595.72253																-387.76987	772.18811	1463.43005				-510.78458	862.12201	1544.85071							-477.73297	434.01566	1609.20667	-960.51947	176.91212	1646.18396				
